Season 8 Episode 11 of 12
Reality programme following a group of people in Essex, with each episode filmed just a few days before transmission
The Only Way Is Essex is a British BAFTA award-winning reality television show based in Essex, England.
It shows "real people in modified situations, saying unscripted lines but in a structured way."





General
Complete name                            : The.Only.Way.Is.Essex.S08E11.PDTV.x264-W33D.mp4
Format                                   : MPEG-4
Format profile                           : Base Media
Codec ID                                 : isom
File size                                : 300 MiB
Duration                                 : 32mn 53s
Overall bit rate mode                    : Variable
Overall bit rate                         : 1 275 Kbps


Video
ID                                       : 1
Format                                   : AVC
Format/Info                              : Advanced Video Codec
Format profile                           : High@L3.1
Format settings, CABAC                   : Yes
Format settings, ReFrames                : 4 frames
Codec ID                                 : avc1
Codec ID/Info                            : Advanced Video Coding
Duration                                 : 32mn 53s
Bit rate                                 : 1 133 Kbps
Maximum bit rate                         : 5 205 Kbps
Width                                    : 704 pixels
Height                                   : 400 pixels
Display aspect ratio                     : 16:9
Frame rate mode                          : Constant
Frame rate                               : 25.000 fps
Color space                              : YUV
Chroma subsampling                       : 4:2:0
Bit depth                                : 8 bits
Scan type                                : Progressive
Bits/(Pixel*Frame)                       : 0.161
Stream size                              : 266 MiB (89%)
Title                                    : Only.Way.Is.Essex.S08E11.264#trackID=1:fps=25@GPAC0.5.1-DEV-rev4283
Writing library                          : x264 core 130 r2273 b3065e6


Audio
ID                                       : 2
Format                                   : AAC
Format/Info                              : Advanced Audio Codec
Format profile                           : LC
Codec ID                                 : 40
Duration                                 : 32mn 53s
Bit rate mode                            : Variable
Bit rate                                 : 138 Kbps
Maximum bit rate                         : 161 Kbps
Channel(s)                               : 2 channels
Channel positions                        : Front: L R
Sampling rate                            : 48.0 KHz
Compression mode                         : Lossy
Stream size                              : 32.5 MiB (11%)
